<svg width="22" height="22" viewBox="0 0 22 22" fill="none" xmlns="http://www.w3.org/2000/svg">
<path d="M1 11.9093C1 13.2503 2.15547 14.3355 3.57713 14.3355H18.423C19.8445 14.3355 21 13.2503 21 11.9093V10.0912C21 8.75027 19.8445 7.66504 18.423 7.66504H3.57713C2.15547 7.66504 1 8.75027 1 10.0912V11.9093Z" stroke="black" stroke-width="1.71" stroke-miterlimit="10" stroke-linecap="round" stroke-linejoin="round"/>
<path d="M1 5.24431C1 6.57954 2.15547 7.66477 3.57713 7.66477H18.423C19.8445 7.66477 21 6.57954 21 5.24431V3.42613C21 2.08522 19.8445 1 18.423 1H3.57713C2.15547 1 1 2.08522 1 3.42613V5.24431Z" stroke="black" stroke-width="1.71" stroke-miterlimit="10" stroke-linecap="round" stroke-linejoin="round"/>
<path d="M1 18.5735C1 19.9144 2.15547 20.9997 3.57713 20.9997H18.423C19.8445 20.9997 21 19.9144 21 18.5735V16.7553C21 15.4202 19.8445 14.335 18.423 14.335H3.57713C2.15547 14.335 1 15.4202 1 16.7553V18.5735Z" stroke="black" stroke-width="1.71" stroke-miterlimit="10" stroke-linecap="round" stroke-linejoin="round"/>
<path d="M18.3563 4.34561C18.3563 4.84561 17.9208 5.2547 17.3883 5.2547C16.8499 5.2547 16.4204 4.84561 16.4204 4.34561C16.4204 3.83993 16.8499 3.43652 17.3883 3.43652C17.9208 3.43652 18.3563 3.83993 18.3563 4.34561Z" fill="black"/>
<path d="M18.3563 11.1815C18.3563 11.6816 17.9208 12.0906 17.3883 12.0906C16.8499 12.0906 16.4204 11.6816 16.4204 11.1815C16.4204 10.6759 16.8499 10.2725 17.3883 10.2725C17.9208 10.2725 18.3563 10.6759 18.3563 11.1815Z" fill="black"/>
<path d="M18.3563 17.873C18.3563 18.3729 17.9208 18.782 17.3883 18.782C16.8499 18.782 16.4204 18.3729 16.4204 17.873C16.4204 17.3672 16.8499 16.9639 17.3883 16.9639C17.9208 16.9639 18.3563 17.3672 18.3563 17.873Z" fill="black"/>
</svg>
