<svg width="24" height="24" viewBox="0 0 24 24" fill="none" xmlns="http://www.w3.org/2000/svg">
<path fill-rule="evenodd" clip-rule="evenodd" d="M15.7921 14.5009C15.5733 14.3778 15.3067 14.3746 15.0849 14.4924L12.3914 15.9229C12.1506 16.0508 12 16.3012 12 16.574V19.3926C12 19.6653 12.1506 19.9158 12.3914 20.0437L15.0849 21.4742C15.3067 21.592 15.5733 21.5888 15.7921 21.4657L18.3262 20.0406C18.5584 19.9101 18.7021 19.6644 18.7021 19.3981V16.5685C18.7021 16.3021 18.5584 16.0564 18.3262 15.9259L15.7921 14.5009ZM13.2549 16.3701L15.4298 15.215L17.4845 16.3704C17.3688 16.4299 17.2418 16.495 17.1071 16.5636C16.5854 16.8292 15.9541 17.1438 15.4306 17.3848C14.8742 17.143 14.2015 16.8265 13.6465 16.5596C13.5069 16.4925 13.3751 16.4286 13.2549 16.3701ZM12.8 17.0385V19.3548L15.0353 20.542V20.5401V20.5333V20.5265V20.5197V20.513V20.5061V20.4994V20.4928V20.486V20.4793V20.4725V20.4659V20.4592V20.4525V20.4459V20.4392V20.4325V20.4259V20.4193V20.4128V20.4061V20.3995V20.393V20.3864V20.3798V20.3732V20.3667V20.3602V20.3537V20.3472V20.3406V20.3341V20.3277V20.3212V20.3147V20.3083V20.3019V20.2954V20.289V20.2826V20.2762V20.2698V20.2634V20.257V20.2506V20.2442V20.2379V20.2315V20.2252V20.2188V20.2125V20.2062V20.1998V20.1936V20.1873V20.181V20.1747V20.1684V20.1621V20.156V20.1497V20.1434V20.1372V20.1309V20.1248V20.1185V20.1123V20.1061V20.1V20.0938V20.0875V20.0813V20.0752V20.0691V20.0629V20.0568V20.0506V20.0444V20.0384V20.0322V20.0261V20.02V20.0139V20.0077V20.0017V19.9956V19.9896V19.9834V19.9773V19.9713V19.9652V19.9592V19.9531V19.947V19.941V19.935V19.929V19.9229V19.9169V19.9109V19.9049V19.8989V19.8929V19.8869V19.8809V19.8749V19.8689V19.8629V19.857V19.8509V19.845V19.839V19.8331V19.8272V19.8212V19.8152V19.8092V19.8033V19.7973V19.7914V19.7856V19.7796V19.7737V19.7677V19.7618V19.7558V19.75V19.7441V19.7381V19.7322V19.7264V19.7204V19.7145V19.7086V19.7027V19.6969V19.6909V19.6851V19.6792V19.6732V19.6674V19.6616V19.6556V19.6498V19.6438V19.638V19.6321V19.6262V19.6204V19.6145V19.6086V19.6028V19.5969V19.591V19.5852V19.5793V19.5734V19.5676V19.5617V19.5558V19.55V19.5441V19.5382V19.5324V19.5266V19.5206V19.5148V19.509V19.503V19.4972V19.4914V19.4856V19.4796V19.4738V19.468V19.462V19.4562V19.4504V19.4445V19.4386V19.4328V19.4269V19.421V19.4152V19.4092V19.4034V19.3976V19.3916V19.3858V19.3798V19.374V19.3682V19.3622V19.3564V19.3505V19.3446V19.3387V19.3328V19.3269V19.321V19.3152V19.3092V19.3033V19.2974V19.2915V19.2856V19.2797V19.2738V19.2678V19.2619V19.256V19.25V19.2441V19.2382V19.2323V19.2264V19.2204V19.2145V19.2084V19.2025V19.1965V19.1906V19.1846V19.1787V19.1726V19.1667V19.1608V19.1547V19.1488V19.1427V19.1368V19.1307V19.1248V19.1187V19.1128V19.1067V19.1006V19.0946V19.0886V19.0826V19.0765V19.0705V19.0644V19.0584V19.0523V19.0462V19.0401V19.034V19.028V19.0219V19.0157V19.0097V19.0035V18.9974V18.9913V18.9852V18.979V18.9729V18.9667V18.9606V18.9545V18.9483V18.9421V18.936V18.9297V18.9235V18.9173V18.9112V18.9049V18.8987V18.8924V18.8862V18.88V18.8737V18.8675V18.8612V18.8549V18.8486V18.8424V18.8361V18.8298V18.8234V18.8171V18.8108V18.8044V18.7981V18.7917V18.7854V18.779V18.7726V18.7662V18.7598V18.7534V18.747V18.7406V18.7342V18.7277V18.7213V18.7149V18.7084V18.7019V18.6955V18.689V18.6825V18.676V18.6694V18.6629V18.6564V18.6498V18.6433V18.6366V18.6301V18.6235V18.6169V18.6104V18.6037V18.5971V18.5905V18.5837V18.5771V18.5705V18.5637V18.5571V18.5504V18.5436V18.537V18.5302V18.5235V18.5166V18.5099V18.5032V18.4963V18.4896V18.4827V18.476V18.4691V18.4622V18.4554V18.4485V18.4416V18.4347V18.4278V18.4209V18.4139V18.407V18.4001V18.3931V18.3861V18.3792V18.3721V18.3651V18.358V18.351V18.344V18.3369V18.3298V18.3227V18.3156V18.3084V18.3013V18.2941V18.287V18.2798V18.2726V18.2654V18.2582V18.251V18.2437V18.2365V18.2292V18.2219V18.2147V18.2074V18.2V18.1926V18.1853V18.1779V18.1706V18.1632V18.1557V18.1483V18.1409V18.1334V18.1259V18.1185V18.1109V18.1034V18.096V18.0883V18.0851C14.4797 17.8417 13.8314 17.5363 13.2998 17.2806C13.1173 17.1929 12.9479 17.1106 12.8 17.0385ZM15.8353 20.5235L17.9021 19.3613V17.0552C17.7721 17.1221 17.6262 17.1971 17.4701 17.2765C16.9696 17.5314 16.3595 17.8357 15.8353 18.079V18.0808V18.0883V18.096V18.1034V18.1109V18.1185V18.1259V18.1334V18.1409V18.1483V18.1557V18.1632V18.1706V18.1779V18.1853V18.1926V18.2V18.2074V18.2147V18.2219V18.2292V18.2365V18.2437V18.251V18.2582V18.2654V18.2726V18.2798V18.287V18.2941V18.3013V18.3084V18.3156V18.3227V18.3298V18.3369V18.344V18.351V18.358V18.3651V18.3721V18.3792V18.3861V18.3931V18.4001V18.407V18.4139V18.4209V18.4278V18.4347V18.4416V18.4485V18.4554V18.4622V18.4691V18.476V18.4827V18.4896V18.4963V18.5032V18.5099V18.5166V18.5235V18.5302V18.537V18.5436V18.5504V18.5571V18.5637V18.5705V18.5771V18.5837V18.5905V18.5971V18.6037V18.6104V18.6169V18.6235V18.6301V18.6366V18.6433V18.6498V18.6564V18.6629V18.6694V18.676V18.6825V18.689V18.6955V18.7019V18.7084V18.7149V18.7213V18.7277V18.7342V18.7406V18.747V18.7534V18.7598V18.7662V18.7726V18.779V18.7854V18.7917V18.7981V18.8044V18.8108V18.8171V18.8234V18.8298V18.8361V18.8424V18.8486V18.8549V18.8612V18.8675V18.8737V18.88V18.8862V18.8924V18.8987V18.9049V18.9112V18.9173V18.9235V18.9297V18.936V18.9421V18.9483V18.9545V18.9606V18.9667V18.9729V18.979V18.9852V18.9913V18.9974V19.0035V19.0097V19.0157V19.0219V19.028V19.034V19.0401V19.0462V19.0523V19.0584V19.0644V19.0705V19.0765V19.0826V19.0886V19.0946V19.1006V19.1067V19.1128V19.1187V19.1248V19.1307V19.1368V19.1427V19.1488V19.1547V19.1608V19.1667V19.1726V19.1787V19.1846V19.1906V19.1965V19.2025V19.2084V19.2145V19.2204V19.2264V19.2323V19.2382V19.2441V19.25V19.256V19.2619V19.2678V19.2738V19.2797V19.2856V19.2915V19.2974V19.3033V19.3092V19.3152V19.321V19.3269V19.3328V19.3387V19.3446V19.3505V19.3564V19.3622V19.3682V19.374V19.3798V19.3858V19.3916V19.3976V19.4034V19.4092V19.4152V19.421V19.4269V19.4328V19.4386V19.4445V19.4504V19.4562V19.462V19.468V19.4738V19.4796V19.4856V19.4914V19.4972V19.503V19.509V19.5148V19.5206V19.5266V19.5324V19.5382V19.5441V19.55V19.5558V19.5617V19.5676V19.5734V19.5793V19.5852V19.591V19.5969V19.6028V19.6086V19.6145V19.6204V19.6262V19.6321V19.638V19.6438V19.6498V19.6556V19.6616V19.6674V19.6732V19.6792V19.6851V19.6909V19.6969V19.7027V19.7086V19.7145V19.7204V19.7264V19.7322V19.7381V19.7441V19.75V19.7558V19.7618V19.7677V19.7737V19.7796V19.7856V19.7914V19.7973V19.8033V19.8092V19.8152V19.8212V19.8272V19.8331V19.839V19.845V19.8509V19.857V19.8629V19.8689V19.8749V19.8809V19.8869V19.8929V19.8989V19.9049V19.9109V19.9169V19.9229V19.929V19.935V19.941V19.947V19.9531V19.9592V19.9652V19.9713V19.9773V19.9834V19.9896V19.9956V20.0017V20.0077V20.0139V20.02V20.0261V20.0322V20.0384V20.0444V20.0506V20.0568V20.0629V20.0691V20.0752V20.0813V20.0875V20.0938V20.1V20.1061V20.1123V20.1185V20.1248V20.1309V20.1372V20.1434V20.1497V20.156V20.1621V20.1684V20.1747V20.181V20.1873V20.1936V20.1998V20.2062V20.2125V20.2188V20.2252V20.2315V20.2379V20.2442V20.2506V20.257V20.2634V20.2698V20.2762V20.2826V20.289V20.2954V20.3019V20.3083V20.3147V20.3212V20.3277V20.3341V20.3406V20.3472V20.3537V20.3602V20.3667V20.3732V20.3798V20.3864V20.393V20.3995V20.4061V20.4128V20.4193V20.4259V20.4325V20.4392V20.4459V20.4525V20.4592V20.4659V20.4725V20.4793V20.486V20.4928V20.4994V20.5061V20.513V20.5197V20.5235Z" fill="black"/>
<path fill-rule="evenodd" clip-rule="evenodd" d="M15.7921 6.50088C15.5733 6.3778 15.3067 6.37459 15.0849 6.49238L12.3914 7.92286C12.1506 8.05078 12 8.30125 12 8.57399V11.3926C12 11.6653 12.1506 11.9158 12.3914 12.0437L15.0849 13.4742C15.3067 13.5919 15.5733 13.5887 15.7921 13.4657L18.3262 12.0406C18.5584 11.9101 18.7021 11.6644 18.7021 11.3981V8.56851C18.7021 8.30212 18.5584 8.05645 18.3262 7.92588L15.7921 6.50088ZM13.2549 8.37016L15.4298 7.21501L17.4845 8.37035C17.3688 8.42989 17.2418 8.49505 17.1071 8.56364C16.5854 8.82922 15.9541 9.14381 15.4306 9.38476C14.8742 9.14307 14.2015 8.82649 13.6465 8.55961C13.5069 8.49249 13.3751 8.42867 13.2549 8.37016ZM12.8 9.03849V11.3549L15.0353 12.542V12.5401V12.5333V12.5265V12.5197V12.513V12.5061V12.4994V12.4927V12.486V12.4793V12.4725V12.4659V12.4591V12.4525V12.4459V12.4391V12.4325V12.4259V12.4193V12.4127V12.4061V12.3995V12.393V12.3863V12.3798V12.3732V12.3667V12.3602V12.3537V12.3471V12.3406V12.3341V12.3277V12.3212V12.3147V12.3083V12.3019V12.2954V12.289V12.2826V12.2762V12.2698V12.2634V12.257V12.2506V12.2442V12.2379V12.2315V12.2252V12.2188V12.2125V12.2062V12.1998V12.1935V12.1873V12.181V12.1747V12.1684V12.1621V12.1559V12.1497V12.1434V12.1372V12.1309V12.1247V12.1185V12.1123V12.1061V12.0999V12.0938V12.0875V12.0813V12.0751V12.0691V12.0629V12.0567V12.0506V12.0444V12.0383V12.0322V12.0261V12.0199V12.0139V12.0077V12.0017V11.9956V11.9895V11.9834V11.9773V11.9713V11.9652V11.9592V11.9531V11.9471V11.941V11.935V11.929V11.9229V11.9169V11.9109V11.9049V11.8989V11.8929V11.8869V11.8809V11.8749V11.8689V11.8629V11.8569V11.851V11.845V11.839V11.8331V11.8271V11.8211V11.8152V11.8092V11.8033V11.7974V11.7914V11.7855V11.7795V11.7736V11.7677V11.7618V11.7559V11.7499V11.744V11.7381V11.7322V11.7263V11.7204V11.7145V11.7086V11.7027V11.6968V11.6909V11.685V11.6791V11.6733V11.6674V11.6615V11.6556V11.6497V11.6438V11.638V11.6321V11.6262V11.6203V11.6145V11.6086V11.6027V11.5969V11.591V11.5851V11.5793V11.5734V11.5675V11.5617V11.5558V11.55V11.5441V11.5382V11.5324V11.5265V11.5207V11.5148V11.5089V11.5031V11.4972V11.4914V11.4855V11.4796V11.4738V11.4679V11.462V11.4562V11.4503V11.4445V11.4386V11.4327V11.4269V11.421V11.4151V11.4092V11.4034V11.3975V11.3916V11.3857V11.3799V11.374V11.3681V11.3622V11.3563V11.3505V11.3446V11.3387V11.3328V11.3269V11.321V11.3151V11.3092V11.3033V11.2974V11.2915V11.2856V11.2797V11.2737V11.2678V11.2619V11.256V11.25V11.2441V11.2382V11.2322V11.2263V11.2203V11.2144V11.2085V11.2025V11.1965V11.1906V11.1846V11.1786V11.1727V11.1667V11.1607V11.1547V11.1487V11.1427V11.1367V11.1307V11.1247V11.1187V11.1127V11.1067V11.1006V11.0946V11.0886V11.0825V11.0765V11.0704V11.0644V11.0583V11.0523V11.0462V11.0401V11.034V11.0279V11.0218V11.0157V11.0096V11.0035V10.9974V10.9913V10.9851V10.979V10.9729V10.9667V10.9606V10.9544V10.9482V10.9421V10.9359V10.9297V10.9235V10.9173V10.9111V10.9049V10.8987V10.8924V10.8862V10.8799V10.8737V10.8674V10.8612V10.8549V10.8486V10.8423V10.836V10.8297V10.8234V10.8171V10.8108V10.8044V10.7981V10.7917V10.7854V10.779V10.7726V10.7663V10.7599V10.7535V10.747V10.7406V10.7342V10.7278V10.7213V10.7149V10.7084V10.7019V10.6954V10.689V10.6825V10.6759V10.6694V10.6629V10.6563V10.6498V10.6432V10.6367V10.6301V10.6235V10.6169V10.6103V10.6037V10.597V10.5904V10.5838V10.5771V10.5704V10.5637V10.5571V10.5503V10.5436V10.5369V10.5302V10.5234V10.5167V10.5099V10.5031V10.4963V10.4895V10.4827V10.4759V10.4691V10.4622V10.4553V10.4485V10.4416V10.4347V10.4278V10.4209V10.4139V10.407V10.4V10.3931V10.3861V10.3791V10.3721V10.3651V10.358V10.351V10.3439V10.3369V10.3298V10.3227V10.3156V10.3085V10.3013V10.2942V10.287V10.2798V10.2726V10.2654V10.2582V10.251V10.2437V10.2365V10.2292V10.2219V10.2146V10.2073V10.2V10.1926V10.1853V10.1779V10.1705V10.1631V10.1557V10.1483V10.1409V10.1334V10.1259V10.1184V10.1109V10.1034V10.0959V10.0883V10.0851C14.4797 9.84169 13.8314 9.53623 13.2998 9.28059C13.1173 9.19279 12.9479 9.11061 12.8 9.03849ZM15.8353 12.5235L17.9021 11.3614V9.0551C17.7721 9.12212 17.6262 9.19703 17.4701 9.27657C16.9696 9.53133 16.3595 9.83575 15.8353 10.079V10.0808V10.0883V10.0959V10.1034V10.1109V10.1184V10.1259V10.1334V10.1409V10.1483V10.1557V10.1631V10.1705V10.1779V10.1853V10.1926V10.2V10.2073V10.2146V10.2219V10.2292V10.2365V10.2437V10.251V10.2582V10.2654V10.2726V10.2798V10.287V10.2942V10.3013V10.3085V10.3156V10.3227V10.3298V10.3369V10.3439V10.351V10.358V10.3651V10.3721V10.3791V10.3861V10.3931V10.4V10.407V10.4139V10.4209V10.4278V10.4347V10.4416V10.4485V10.4553V10.4622V10.4691V10.4759V10.4827V10.4895V10.4963V10.5031V10.5099V10.5167V10.5234V10.5302V10.5369V10.5436V10.5503V10.5571V10.5637V10.5704V10.5771V10.5838V10.5904V10.597V10.6037V10.6103V10.6169V10.6235V10.6301V10.6367V10.6432V10.6498V10.6563V10.6629V10.6694V10.6759V10.6825V10.689V10.6954V10.7019V10.7084V10.7149V10.7213V10.7278V10.7342V10.7406V10.747V10.7535V10.7599V10.7663V10.7726V10.779V10.7854V10.7917V10.7981V10.8044V10.8108V10.8171V10.8234V10.8297V10.836V10.8423V10.8486V10.8549V10.8612V10.8674V10.8737V10.8799V10.8862V10.8924V10.8987V10.9049V10.9111V10.9173V10.9235V10.9297V10.9359V10.9421V10.9482V10.9544V10.9606V10.9667V10.9729V10.979V10.9851V10.9913V10.9974V11.0035V11.0096V11.0157V11.0218V11.0279V11.034V11.0401V11.0462V11.0523V11.0583V11.0644V11.0704V11.0765V11.0825V11.0886V11.0946V11.1006V11.1067V11.1127V11.1187V11.1247V11.1307V11.1367V11.1427V11.1487V11.1547V11.1607V11.1667V11.1727V11.1786V11.1846V11.1906V11.1965V11.2025V11.2085V11.2144V11.2203V11.2263V11.2322V11.2382V11.2441V11.25V11.256V11.2619V11.2678V11.2737V11.2797V11.2856V11.2915V11.2974V11.3033V11.3092V11.3151V11.321V11.3269V11.3328V11.3387V11.3446V11.3505V11.3563V11.3622V11.3681V11.374V11.3799V11.3857V11.3916V11.3975V11.4034V11.4092V11.4151V11.421V11.4269V11.4327V11.4386V11.4445V11.4503V11.4562V11.462V11.4679V11.4738V11.4796V11.4855V11.4914V11.4972V11.5031V11.5089V11.5148V11.5207V11.5265V11.5324V11.5382V11.5441V11.55V11.5558V11.5617V11.5675V11.5734V11.5793V11.5851V11.591V11.5969V11.6027V11.6086V11.6145V11.6203V11.6262V11.6321V11.638V11.6438V11.6497V11.6556V11.6615V11.6674V11.6733V11.6791V11.685V11.6909V11.6968V11.7027V11.7086V11.7145V11.7204V11.7263V11.7322V11.7381V11.744V11.7499V11.7559V11.7618V11.7677V11.7736V11.7795V11.7855V11.7914V11.7974V11.8033V11.8092V11.8152V11.8211V11.8271V11.8331V11.839V11.845V11.851V11.8569V11.8629V11.8689V11.8749V11.8809V11.8869V11.8929V11.8989V11.9049V11.9109V11.9169V11.9229V11.929V11.935V11.941V11.9471V11.9531V11.9592V11.9652V11.9713V11.9773V11.9834V11.9895V11.9956V12.0017V12.0077V12.0139V12.0199V12.0261V12.0322V12.0383V12.0444V12.0506V12.0567V12.0629V12.0691V12.0751V12.0813V12.0875V12.0938V12.0999V12.1061V12.1123V12.1185V12.1247V12.1309V12.1372V12.1434V12.1497V12.1559V12.1621V12.1684V12.1747V12.181V12.1873V12.1935V12.1998V12.2062V12.2125V12.2188V12.2252V12.2315V12.2379V12.2442V12.2506V12.257V12.2634V12.2698V12.2762V12.2826V12.289V12.2954V12.3019V12.3083V12.3147V12.3212V12.3277V12.3341V12.3406V12.3471V12.3537V12.3602V12.3667V12.3732V12.3798V12.3863V12.393V12.3995V12.4061V12.4127V12.4193V12.4259V12.4325V12.4391V12.4459V12.4525V12.4591V12.4659V12.4725V12.4793V12.486V12.4927V12.4994V12.5061V12.513V12.5197V12.5235Z" fill="black"/>
<path fill-rule="evenodd" clip-rule="evenodd" d="M8.93516 10.3808C8.71627 10.2577 8.44978 10.2545 8.22798 10.3723L5.53452 11.8027C5.29364 11.9307 5.14307 12.1811 5.14307 12.4539V15.2724C5.14307 15.5452 5.29364 15.7956 5.53452 15.9236L8.22798 17.354C8.44978 17.4718 8.71627 17.4686 8.93516 17.3456L11.4692 15.9205C11.7015 15.79 11.8451 15.5443 11.8451 15.2779V12.4484C11.8451 12.182 11.7015 11.9363 11.4692 11.8058L8.93516 10.3808ZM6.39788 12.25L8.57293 11.0949L10.6275 12.2502C10.5119 12.3098 10.3848 12.3749 10.2501 12.4435C9.72848 12.7091 9.09717 13.0237 8.57375 13.2646C8.01728 13.0229 7.34458 12.7064 6.78957 12.4395C6.64997 12.3724 6.51814 12.3085 6.39788 12.25ZM5.94307 12.9184V15.2347L8.17842 16.4219V16.42V16.4131V16.4064V16.3996V16.3928V16.386V16.3793V16.3725V16.3658V16.3592V16.3524V16.3457V16.339V16.3324V16.3257V16.319V16.3124V16.3058V16.2992V16.2925V16.286V16.2794V16.2728V16.2662V16.2597V16.2531V16.2466V16.2401V16.2336V16.227V16.2205V16.214V16.2075V16.2011V16.1946V16.1882V16.1817V16.1753V16.1689V16.1625V16.156V16.1496V16.1432V16.1369V16.1305V16.1241V16.1177V16.1114V16.105V16.0987V16.0924V16.086V16.0797V16.0734V16.0672V16.0609V16.0546V16.0483V16.042V16.0357V16.0296V16.0233V16.017V16.0108V16.0046V15.9984V15.9922V15.986V15.9797V15.9736V15.9674V15.9612V15.955V15.9489V15.9427V15.9366V15.9305V15.9243V15.9182V15.9121V15.9059V15.8998V15.8938V15.8876V15.8816V15.8755V15.8693V15.8633V15.8572V15.8512V15.8451V15.839V15.833V15.8269V15.8209V15.8148V15.8089V15.8028V15.7968V15.7908V15.7848V15.7787V15.7728V15.7667V15.7608V15.7547V15.7488V15.7428V15.7368V15.7308V15.7249V15.7189V15.713V15.7069V15.701V15.695V15.6891V15.6832V15.6772V15.6713V15.6653V15.6594V15.6536V15.6476V15.6417V15.6357V15.6298V15.624V15.618V15.6121V15.6061V15.6003V15.5944V15.5885V15.5826V15.5766V15.5708V15.5649V15.559V15.5531V15.5473V15.5413V15.5355V15.5296V15.5237V15.5179V15.512V15.5061V15.5002V15.4944V15.4885V15.4826V15.4768V15.4709V15.465V15.4592V15.4533V15.4474V15.4416V15.4357V15.4298V15.424V15.4181V15.4123V15.4064V15.4005V15.3947V15.3888V15.3829V15.3771V15.3713V15.3653V15.3595V15.3537V15.3477V15.3419V15.3361V15.3302V15.3243V15.3185V15.3126V15.3067V15.3009V15.295V15.2891V15.2833V15.2773V15.2715V15.2657V15.2597V15.2539V15.248V15.2421V15.2362V15.2304V15.2244V15.2186V15.2126V15.2068V15.2009V15.1949V15.1891V15.1832V15.1772V15.1714V15.1654V15.1595V15.1536V15.1477V15.1418V15.1358V15.1299V15.124V15.118V15.1121V15.1061V15.1002V15.0942V15.0883V15.0824V15.0764V15.0705V15.0645V15.0585V15.0525V15.0466V15.0405V15.0346V15.0286V15.0226V15.0166V15.0106V15.0046V14.9986V14.9925V14.9866V14.9805V14.9745V14.9684V14.9624V14.9564V14.9504V14.9443V14.9382V14.9322V14.926V14.92V14.9139V14.9078V14.9017V14.8956V14.8896V14.8834V14.8773V14.8712V14.865V14.8589V14.8528V14.8466V14.8404V14.8342V14.8281V14.8219V14.8157V14.8096V14.8034V14.7972V14.7909V14.7848V14.7786V14.7723V14.766V14.7598V14.7536V14.7473V14.7411V14.7348V14.7285V14.7222V14.716V14.7096V14.7033V14.697V14.6907V14.6843V14.678V14.6716V14.6652V14.6589V14.6525V14.6461V14.6397V14.6333V14.6269V14.6205V14.6141V14.6076V14.6012V14.5947V14.5883V14.5818V14.5753V14.5689V14.5624V14.5558V14.5493V14.5428V14.5362V14.5297V14.5232V14.5165V14.51V14.5034V14.4968V14.4901V14.4835V14.4769V14.4702V14.4636V14.457V14.4504V14.4436V14.437V14.4302V14.4235V14.4168V14.41V14.4033V14.3965V14.3898V14.383V14.3762V14.3694V14.3626V14.3557V14.349V14.3421V14.3353V14.3283V14.3214V14.3146V14.3076V14.3008V14.2938V14.2868V14.28V14.273V14.2659V14.2589V14.252V14.245V14.2379V14.2308V14.2238V14.2168V14.2097V14.2026V14.1955V14.1883V14.1812V14.174V14.1669V14.1597V14.1525V14.1453V14.1381V14.1308V14.1236V14.1164V14.1091V14.1018V14.0945V14.0872V14.0798V14.0725V14.0652V14.0578V14.0505V14.043V14.0356V14.0282V14.0208V14.0133V14.0058V13.9984V13.9908V13.9833V13.9757V13.9682V13.965C7.62276 13.7216 6.97453 13.4161 6.44288 13.1604C6.2603 13.0726 6.09092 12.9905 5.94307 12.9184ZM8.97842 16.4034L11.0451 15.2412V12.9349C10.9152 13.002 10.7693 13.0769 10.6131 13.1564C10.1127 13.4112 9.50258 13.7156 8.97842 13.9589V13.9606V13.9682V13.9757V13.9833V13.9908V13.9984V14.0058V14.0133V14.0208V14.0282V14.0356V14.043V14.0505V14.0578V14.0652V14.0725V14.0798V14.0872V14.0945V14.1018V14.1091V14.1164V14.1236V14.1308V14.1381V14.1453V14.1525V14.1597V14.1669V14.174V14.1812V14.1883V14.1955V14.2026V14.2097V14.2168V14.2238V14.2308V14.2379V14.245V14.252V14.2589V14.2659V14.273V14.28V14.2868V14.2938V14.3008V14.3076V14.3146V14.3214V14.3283V14.3353V14.3421V14.349V14.3557V14.3626V14.3694V14.3762V14.383V14.3898V14.3965V14.4033V14.41V14.4168V14.4235V14.4302V14.437V14.4436V14.4504V14.457V14.4636V14.4702V14.4769V14.4835V14.4901V14.4968V14.5034V14.51V14.5165V14.5232V14.5297V14.5362V14.5428V14.5493V14.5558V14.5624V14.5689V14.5753V14.5818V14.5883V14.5947V14.6012V14.6076V14.6141V14.6205V14.6269V14.6333V14.6397V14.6461V14.6525V14.6589V14.6652V14.6716V14.678V14.6843V14.6907V14.697V14.7033V14.7096V14.716V14.7222V14.7285V14.7348V14.7411V14.7473V14.7536V14.7598V14.766V14.7723V14.7786V14.7848V14.7909V14.7972V14.8034V14.8096V14.8157V14.8219V14.8281V14.8342V14.8404V14.8466V14.8528V14.8589V14.865V14.8712V14.8773V14.8834V14.8896V14.8956V14.9017V14.9078V14.9139V14.92V14.926V14.9322V14.9382V14.9443V14.9504V14.9564V14.9624V14.9684V14.9745V14.9805V14.9866V14.9925V14.9986V15.0046V15.0106V15.0166V15.0226V15.0286V15.0346V15.0405V15.0466V15.0525V15.0585V15.0645V15.0705V15.0764V15.0824V15.0883V15.0942V15.1002V15.1061V15.1121V15.118V15.124V15.1299V15.1358V15.1418V15.1477V15.1536V15.1595V15.1654V15.1714V15.1772V15.1832V15.1891V15.1949V15.2009V15.2068V15.2126V15.2186V15.2244V15.2304V15.2362V15.2421V15.248V15.2539V15.2597V15.2657V15.2715V15.2773V15.2833V15.2891V15.295V15.3009V15.3067V15.3126V15.3185V15.3243V15.3302V15.3361V15.3419V15.3477V15.3537V15.3595V15.3653V15.3713V15.3771V15.3829V15.3888V15.3947V15.4005V15.4064V15.4123V15.4181V15.424V15.4298V15.4357V15.4416V15.4474V15.4533V15.4592V15.465V15.4709V15.4768V15.4826V15.4885V15.4944V15.5002V15.5061V15.512V15.5179V15.5237V15.5296V15.5355V15.5413V15.5473V15.5531V15.559V15.5649V15.5708V15.5766V15.5826V15.5885V15.5944V15.6003V15.6061V15.6121V15.618V15.624V15.6298V15.6357V15.6417V15.6476V15.6536V15.6594V15.6653V15.6713V15.6772V15.6832V15.6891V15.695V15.701V15.7069V15.713V15.7189V15.7249V15.7308V15.7368V15.7428V15.7488V15.7547V15.7608V15.7667V15.7728V15.7787V15.7848V15.7908V15.7968V15.8028V15.8089V15.8148V15.8209V15.8269V15.833V15.839V15.8451V15.8512V15.8572V15.8633V15.8693V15.8755V15.8816V15.8876V15.8938V15.8998V15.9059V15.9121V15.9182V15.9243V15.9305V15.9366V15.9427V15.9489V15.955V15.9612V15.9674V15.9736V15.9797V15.986V15.9922V15.9984V16.0046V16.0108V16.017V16.0233V16.0296V16.0357V16.042V16.0483V16.0546V16.0609V16.0672V16.0734V16.0797V16.086V16.0924V16.0987V16.105V16.1114V16.1177V16.1241V16.1305V16.1369V16.1432V16.1496V16.156V16.1625V16.1689V16.1753V16.1817V16.1882V16.1946V16.2011V16.2075V16.214V16.2205V16.227V16.2336V16.2401V16.2466V16.2531V16.2597V16.2662V16.2728V16.2794V16.286V16.2925V16.2992V16.3058V16.3124V16.319V16.3257V16.3324V16.339V16.3457V16.3524V16.3592V16.3658V16.3725V16.3793V16.386V16.3928V16.3996V16.4034Z" fill="black"/>
<path fill-rule="evenodd" clip-rule="evenodd" d="M8.93516 2.38077C8.71627 2.25767 8.44978 2.25447 8.22798 2.37227L5.53452 3.80274C5.29364 3.93067 5.14307 4.18113 5.14307 4.45387V7.27245C5.14307 7.54519 5.29364 7.79565 5.53452 7.92358L8.22798 9.35405C8.44978 9.47185 8.71627 9.46865 8.93516 9.34555L11.4692 7.92055C11.7015 7.78998 11.8451 7.54431 11.8451 7.27794V4.44838C11.8451 4.18201 11.7015 3.93634 11.4692 3.80577L8.93516 2.38077ZM6.39788 4.25004L8.57293 3.09489L10.6275 4.25023C10.5119 4.30978 10.3848 4.37493 10.2501 4.44353C9.72848 4.7091 9.09717 5.02369 8.57375 5.26465C8.01728 5.02294 7.34458 4.70636 6.78957 4.43949C6.64997 4.37237 6.51814 4.30854 6.39788 4.25004ZM5.94307 4.91836V7.23474L8.17842 8.4219V8.41995V8.41314V8.40635V8.39957V8.39281V8.38604V8.3793V8.37257V8.36583V8.35913V8.35242V8.34573V8.33905V8.33237V8.32572V8.31907V8.31243V8.3058V8.29918V8.29257V8.28597V8.27938V8.27281V8.26623V8.25968V8.25313V8.24659V8.24005V8.23354V8.22702V8.22052V8.21403V8.20755V8.20108V8.19461V8.18815V8.18171V8.17527V8.16884V8.16243V8.15602V8.14961V8.14322V8.13683V8.13045V8.12409V8.11773V8.11138V8.10503V8.0987V8.09237V8.08605V8.07974V8.07343V8.06714V8.06085V8.05457V8.0483V8.04203V8.03578V8.02953V8.02329V8.01705V8.01082V8.0046V7.99838V7.99218V7.98597V7.97978V7.9736V7.96741V7.96124V7.95507V7.94891V7.94275V7.9366V7.93046V7.92433V7.9182V7.91207V7.90596V7.89985V7.89373V7.88764V7.88154V7.87546V7.86937V7.8633V7.85722V7.85115V7.84509V7.83903V7.83299V7.82694V7.8209V7.81486V7.80883V7.80281V7.79678V7.79076V7.78475V7.77875V7.77274V7.76674V7.76075V7.75476V7.74877V7.74278V7.73681V7.73084V7.72486V7.7189V7.71293V7.70698V7.70102V7.69507V7.68913V7.68318V7.67724V7.6713V7.66537V7.65943V7.6535V7.64758V7.64166V7.63574V7.62982V7.6239V7.61799V7.61209V7.60618V7.60028V7.59437V7.58848V7.58258V7.57669V7.5708V7.56491V7.55901V7.55313V7.54724V7.54137V7.53548V7.52961V7.52372V7.51785V7.51197V7.5061V7.50022V7.49436V7.48849V7.48262V7.47675V7.47089V7.46502V7.45916V7.45329V7.44742V7.44156V7.4357V7.42985V7.42398V7.41812V7.41226V7.40639V7.40053V7.39468V7.38882V7.38296V7.37709V7.37124V7.36538V7.35951V7.35365V7.34779V7.34193V7.33606V7.3302V7.32434V7.31846V7.3126V7.30674V7.30086V7.295V7.28913V7.28325V7.27738V7.2715V7.26563V7.25976V7.25387V7.24799V7.24211V7.23622V7.23034V7.22445V7.21855V7.21267V7.20677V7.20087V7.19498V7.18908V7.18317V7.17726V7.17135V7.16545V7.15954V7.15362V7.1477V7.14178V7.13585V7.12991V7.12398V7.11805V7.11212V7.10618V7.10023V7.09428V7.08833V7.08237V7.07642V7.07045V7.06449V7.05852V7.05254V7.04657V7.04059V7.0346V7.02861V7.02261V7.01661V7.01061V7.0046V6.99859V6.99258V6.98656V6.98052V6.9745V6.96845V6.96242V6.95637V6.95031V6.94426V6.9382V6.93213V6.92606V6.91998V6.9139V6.90781V6.90172V6.89562V6.88951V6.8834V6.87729V6.87116V6.86502V6.8589V6.85275V6.8466V6.84045V6.83429V6.82812V6.82195V6.81577V6.80957V6.80338V6.79718V6.79098V6.78476V6.77853V6.7723V6.76607V6.75984V6.75358V6.74732V6.74106V6.73478V6.7285V6.72221V6.71591V6.70962V6.70331V6.69699V6.69066V6.68433V6.67798V6.67163V6.66526V6.6589V6.65252V6.64613V6.63974V6.63334V6.62693V6.62051V6.61409V6.60764V6.60119V6.59475V6.58828V6.5818V6.57532V6.56883V6.56233V6.55582V6.5493V6.54277V6.53623V6.52967V6.52313V6.51655V6.50997V6.50339V6.49678V6.49018V6.48356V6.47693V6.47029V6.46364V6.45698V6.4503V6.44363V6.43693V6.43023V6.42351V6.41679V6.41005V6.40331V6.39655V6.38979V6.383V6.37621V6.36941V6.3626V6.35577V6.34893V6.34209V6.33522V6.32835V6.32147V6.31457V6.30766V6.30074V6.29381V6.28686V6.27991V6.27294V6.26596V6.25897V6.25196V6.24494V6.23791V6.23086V6.22381V6.21674V6.20965V6.20255V6.19545V6.18833V6.1812V6.17404V6.16689V6.15971V6.15252V6.14532V6.1381V6.13087V6.12363V6.11637V6.1091V6.10181V6.09451V6.08721V6.07987V6.07253V6.06517V6.0578V6.05042V6.04302V6.03561V6.02818V6.02074V6.01327V6.0058V5.99831V5.99082V5.9833V5.97577V5.96821V5.96499C7.62276 5.72157 6.97453 5.41612 6.44288 5.16047C6.2603 5.07268 6.09092 4.9905 5.94307 4.91836ZM8.97842 8.40341L11.0451 7.24123V4.93498C10.9152 5.00199 10.7693 5.07692 10.6131 5.15644C10.1127 5.41121 9.50258 5.71564 8.97842 5.95892V5.96065V5.96821V5.97577V5.9833V5.99082V5.99831V6.0058V6.01327V6.02074V6.02818V6.03561V6.04302V6.05042V6.0578V6.06517V6.07253V6.07987V6.08721V6.09451V6.10181V6.1091V6.11637V6.12363V6.13087V6.1381V6.14532V6.15252V6.15971V6.16689V6.17404V6.1812V6.18833V6.19545V6.20255V6.20965V6.21674V6.22381V6.23086V6.23791V6.24494V6.25196V6.25897V6.26596V6.27294V6.27991V6.28686V6.29381V6.30074V6.30766V6.31457V6.32147V6.32835V6.33522V6.34209V6.34893V6.35577V6.3626V6.36941V6.37621V6.383V6.38979V6.39655V6.40331V6.41005V6.41679V6.42351V6.43023V6.43693V6.44363V6.4503V6.45698V6.46364V6.47029V6.47693V6.48356V6.49018V6.49678V6.50339V6.50997V6.51655V6.52313V6.52967V6.53623V6.54277V6.5493V6.55582V6.56233V6.56883V6.57532V6.5818V6.58828V6.59475V6.60119V6.60764V6.61409V6.62051V6.62693V6.63334V6.63974V6.64613V6.65252V6.6589V6.66526V6.67163V6.67798V6.68433V6.69066V6.69699V6.70331V6.70962V6.71591V6.72221V6.7285V6.73478V6.74106V6.74732V6.75358V6.75984V6.76607V6.7723V6.77853V6.78476V6.79098V6.79718V6.80338V6.80957V6.81577V6.82195V6.82812V6.83429V6.84045V6.8466V6.85275V6.8589V6.86502V6.87116V6.87729V6.8834V6.88951V6.89562V6.90172V6.90781V6.9139V6.91998V6.92606V6.93213V6.9382V6.94426V6.95031V6.95637V6.96242V6.96845V6.9745V6.98052V6.98656V6.99258V6.99859V7.0046V7.01061V7.01661V7.02261V7.02861V7.0346V7.04059V7.04657V7.05254V7.05852V7.06449V7.07045V7.07642V7.08237V7.08833V7.09428V7.10023V7.10618V7.11212V7.11805V7.12398V7.12991V7.13585V7.14178V7.1477V7.15362V7.15954V7.16545V7.17135V7.17726V7.18317V7.18908V7.19498V7.20087V7.20677V7.21267V7.21855V7.22445V7.23034V7.23622V7.24211V7.24799V7.25387V7.25976V7.26563V7.2715V7.27738V7.28325V7.28913V7.295V7.30086V7.30674V7.3126V7.31846V7.32434V7.3302V7.33606V7.34193V7.34779V7.35365V7.35951V7.36538V7.37124V7.37709V7.38296V7.38882V7.39468V7.40053V7.40639V7.41226V7.41812V7.42398V7.42985V7.4357V7.44156V7.44742V7.45329V7.45916V7.46502V7.47089V7.47675V7.48262V7.48849V7.49436V7.50022V7.5061V7.51197V7.51785V7.52372V7.52961V7.53548V7.54137V7.54724V7.55313V7.55901V7.56491V7.5708V7.57669V7.58258V7.58848V7.59437V7.60028V7.60618V7.61209V7.61799V7.6239V7.62982V7.63574V7.64166V7.64758V7.6535V7.65943V7.66537V7.6713V7.67724V7.68318V7.68913V7.69507V7.70102V7.70698V7.71293V7.7189V7.72486V7.73084V7.73681V7.74278V7.74877V7.75476V7.76075V7.76674V7.77274V7.77875V7.78475V7.79076V7.79678V7.80281V7.80883V7.81486V7.8209V7.82694V7.83299V7.83903V7.84509V7.85115V7.85722V7.8633V7.86937V7.87546V7.88154V7.88764V7.89373V7.89985V7.90596V7.91207V7.9182V7.92433V7.93046V7.9366V7.94275V7.94891V7.95507V7.96124V7.96741V7.9736V7.97978V7.98597V7.99218V7.99838V8.0046V8.01082V8.01705V8.02329V8.02953V8.03578V8.04203V8.0483V8.05457V8.06085V8.06714V8.07343V8.07974V8.08605V8.09237V8.0987V8.10503V8.11138V8.11773V8.12409V8.13045V8.13683V8.14322V8.14961V8.15602V8.16243V8.16884V8.17527V8.18171V8.18815V8.19461V8.20108V8.20755V8.21403V8.22052V8.22702V8.23354V8.24005V8.24659V8.25313V8.25968V8.26623V8.27281V8.27938V8.28597V8.29257V8.29918V8.3058V8.31243V8.31907V8.32572V8.33237V8.33905V8.34573V8.35242V8.35913V8.36583V8.37257V8.3793V8.38604V8.39281V8.39957V8.40341Z" fill="black"/>
</svg>
