<svg width="159" height="166" viewBox="0 0 159 166" fill="none" xmlns="http://www.w3.org/2000/svg">
<circle cx="79.0005" cy="80" r="62" stroke="#C7CEFF" stroke-width="24"/>
<path d="M79 18C113.242 18 141 45.7583 141 80C141 100.284 131.259 118.293 116.2 129.605" stroke="#DEE1F4" stroke-width="36"/>
<path d="M79.0008 18C113.242 18 141.001 45.7583 141.001 80C141.001 114.242 113.242 142 79.0008 142C51.3868 142 27.9892 123.947 19.9663 99" stroke="#C7CEFF" stroke-width="24"/>
<path d="M119.169 127.096C92.4469 148.506 53.4275 144.201 32.0167 117.479C19.3332 101.649 15.6741 81.5043 20.3534 63.2607" stroke="#DEE1F4" stroke-width="36"/>
<path d="M79 18C113.242 18 141 45.7583 141 80C141 100.284 131.259 118.293 116.2 129.605" stroke="#0D64DE" stroke-width="24"/>
<path d="M117.589 128.25C90.206 148.808 51.3415 143.277 30.7826 115.894C18.6038 99.6727 15.5807 79.4225 20.832 61.3352" stroke="#0D64DE" stroke-width="24"/>
</svg>
